<svg width="1299" height="1489" viewBox="0 0 1299 1489" fill="none" xmlns="http://www.w3.org/2000/svg">
<circle cx="926.5" cy="708.5" r="372.5" fill="#13AC83"/>
<path d="M843.408 686.881V692.113C843.408 709.962 841.815 724.273 838.63 735.044C835.444 745.713 830.819 754.33 824.755 760.896C818.794 767.359 811.498 773.309 802.865 778.746C796.596 782.747 790.892 787.004 785.753 791.518C780.717 795.929 776.709 800.802 773.729 806.136C770.748 811.47 769.258 817.523 769.258 824.293C769.258 831.372 770.954 837.527 774.345 842.759C777.737 848.093 782.259 852.197 787.911 855.069C793.667 858.044 799.987 859.531 806.873 859.531C813.553 859.531 819.874 858.044 825.834 855.069C831.795 852.197 836.677 847.888 840.479 842.143C844.282 836.399 846.337 829.32 846.646 820.908H909.543C909.132 841.425 904.198 858.403 894.743 871.842C885.391 885.28 873.007 895.282 857.591 901.848C842.278 908.516 825.269 911.85 806.564 911.85C786.216 911.85 768.128 908.465 752.301 901.694C736.576 895.026 724.244 885.332 715.302 872.611C706.361 859.891 701.891 844.503 701.891 826.448C701.891 814.445 703.843 803.828 707.749 794.595C711.757 785.26 717.307 777.053 724.398 769.975C731.592 762.794 739.968 756.382 749.526 750.74C757.645 745.816 764.274 740.789 769.412 735.66C774.654 730.428 778.508 724.376 780.974 717.502C783.543 710.527 784.879 702.063 784.982 692.113V686.881H843.408ZM812.885 588.399C823.162 588.399 831.949 591.989 839.246 599.17C846.543 606.351 850.089 615.071 849.883 625.33C850.089 635.383 846.543 644 839.246 651.181C831.949 658.362 823.162 661.953 812.885 661.953C803.122 661.953 794.54 658.362 787.14 651.181C779.844 644 776.092 635.383 775.887 625.33C775.99 618.456 777.737 612.25 781.128 606.71C784.623 601.171 789.145 596.76 794.694 593.477C800.347 590.092 806.41 588.399 812.885 588.399Z" fill="#F4F2F2"/>
<path d="M1008.67 731.044V725.812C1008.77 707.859 1010.36 693.549 1013.45 682.88C1016.63 672.211 1021.26 663.594 1027.32 657.028C1033.38 650.463 1040.68 644.513 1049.21 639.179C1055.58 635.075 1061.29 630.818 1066.32 626.407C1071.36 621.996 1075.37 617.123 1078.35 611.788C1081.33 606.351 1082.82 600.299 1082.82 593.631C1082.82 586.552 1081.12 580.346 1077.73 575.012C1074.34 569.677 1069.77 565.574 1064.01 562.701C1058.36 559.829 1052.09 558.393 1045.2 558.393C1038.52 558.393 1032.2 559.88 1026.24 562.855C1020.28 565.728 1015.4 570.036 1011.6 575.781C1007.79 581.423 1005.74 588.45 1005.43 596.862H942.533C943.047 576.345 947.98 559.419 957.332 546.083C966.684 532.644 979.068 522.642 994.484 516.077C1009.9 509.408 1026.91 506.074 1045.51 506.074C1065.96 506.074 1084.05 509.46 1099.77 516.23C1115.5 522.898 1127.83 532.593 1136.77 545.313C1145.71 558.034 1150.18 573.37 1150.18 591.323C1150.18 603.325 1148.18 613.994 1144.17 623.329C1140.27 632.562 1134.77 640.769 1127.68 647.95C1120.59 655.028 1112.21 661.44 1102.55 667.184C1094.43 672.006 1087.75 677.033 1082.51 682.264C1077.37 687.496 1073.52 693.549 1070.95 700.422C1068.48 707.295 1067.2 715.758 1067.09 725.812V731.044H1008.67ZM1039.19 829.525C1028.91 829.525 1020.13 825.935 1012.83 818.754C1005.64 811.47 1002.09 802.751 1002.19 792.595C1002.09 782.541 1005.64 773.924 1012.83 766.743C1020.13 759.562 1028.91 755.972 1039.19 755.972C1048.95 755.972 1057.54 759.562 1064.93 766.743C1072.33 773.924 1076.09 782.541 1076.19 792.595C1076.09 799.365 1074.29 805.572 1070.79 811.214C1067.4 816.753 1062.93 821.216 1057.38 824.601C1051.83 827.884 1045.77 829.525 1039.19 829.525Z" fill="#F4F2F2"/>
<circle cx="514.5" cy="1271.5" r="217.5" fill="#13AC83"/>
<path d="M465.983 1258.88V1261.93C465.983 1272.35 465.053 1280.71 463.193 1287C461.333 1293.23 458.632 1298.26 455.092 1302.09C451.611 1305.87 447.351 1309.34 442.31 1312.52C438.65 1314.85 435.319 1317.34 432.319 1319.97C429.378 1322.55 427.038 1325.39 425.298 1328.51C423.558 1331.62 422.687 1335.16 422.687 1339.11C422.687 1343.24 423.678 1346.84 425.658 1349.89C427.638 1353.01 430.278 1355.4 433.579 1357.08C436.939 1358.82 440.63 1359.69 444.65 1359.69C448.551 1359.69 452.241 1358.82 455.722 1357.08C459.202 1355.4 462.053 1352.89 464.273 1349.53C466.493 1346.18 467.694 1342.05 467.874 1337.13H504.599C504.358 1349.11 501.478 1359.03 495.957 1366.87C490.497 1374.72 483.266 1380.56 474.264 1384.39C465.323 1388.29 455.392 1390.23 444.47 1390.23C432.589 1390.23 422.027 1388.26 412.786 1384.3C403.605 1380.41 396.404 1374.75 391.183 1367.32C385.962 1359.9 383.352 1350.91 383.352 1340.37C383.352 1333.36 384.492 1327.16 386.773 1321.77C389.113 1316.32 392.353 1311.53 396.494 1307.39C400.694 1303.2 405.585 1299.46 411.166 1296.16C415.906 1293.29 419.777 1290.35 422.777 1287.36C425.838 1284.3 428.088 1280.77 429.528 1276.76C431.029 1272.68 431.809 1267.74 431.869 1261.93V1258.88H465.983ZM448.161 1201.37C454.162 1201.37 459.292 1203.47 463.553 1207.66C467.814 1211.86 469.884 1216.95 469.764 1222.94C469.884 1228.81 467.814 1233.84 463.553 1238.03C459.292 1242.22 454.162 1244.32 448.161 1244.32C442.46 1244.32 437.449 1242.22 433.129 1238.03C428.868 1233.84 426.678 1228.81 426.558 1222.94C426.618 1218.92 427.638 1215.3 429.618 1212.07C431.659 1208.83 434.299 1206.26 437.539 1204.34C440.84 1202.36 444.38 1201.37 448.161 1201.37Z" fill="#F4F2F2"/>
<path d="M562.476 1284.66V1281.61C562.536 1271.13 563.467 1262.77 565.267 1256.54C567.127 1250.31 569.827 1245.28 573.368 1241.45C576.908 1237.61 581.169 1234.14 586.15 1231.02C589.87 1228.63 593.201 1226.14 596.141 1223.57C599.081 1220.99 601.422 1218.15 603.162 1215.03C604.902 1211.86 605.772 1208.32 605.772 1204.43C605.772 1200.3 604.782 1196.67 602.802 1193.56C600.822 1190.44 598.151 1188.05 594.791 1186.37C591.49 1184.69 587.83 1183.85 583.809 1183.85C579.909 1183.85 576.218 1184.72 572.738 1186.46C569.257 1188.14 566.407 1190.65 564.187 1194.01C561.966 1197.3 560.766 1201.4 560.586 1206.32H523.861C524.161 1194.34 527.042 1184.45 532.502 1176.67C537.963 1168.82 545.194 1162.98 554.195 1159.15C563.196 1155.25 573.128 1153.31 583.989 1153.31C595.931 1153.31 606.492 1155.28 615.674 1159.24C624.855 1163.13 632.056 1168.79 637.277 1176.22C642.497 1183.64 645.108 1192.6 645.108 1203.08C645.108 1210.09 643.937 1216.32 641.597 1221.77C639.317 1227.16 636.106 1231.95 631.966 1236.15C627.825 1240.28 622.935 1244.02 617.294 1247.38C612.553 1250.19 608.653 1253.13 605.592 1256.18C602.592 1259.24 600.342 1262.77 598.841 1266.78C597.401 1270.8 596.651 1275.74 596.591 1281.61V1284.66H562.476ZM580.299 1342.17C574.298 1342.17 569.167 1340.07 564.907 1335.88C560.706 1331.62 558.636 1326.53 558.696 1320.6C558.636 1314.73 560.706 1309.7 564.907 1305.51C569.167 1301.31 574.298 1299.22 580.299 1299.22C586 1299.22 591.01 1301.31 595.331 1305.51C599.651 1309.7 601.842 1314.73 601.902 1320.6C601.842 1324.56 600.792 1328.18 598.751 1331.47C596.771 1334.71 594.161 1337.31 590.92 1339.29C587.68 1341.21 584.139 1342.17 580.299 1342.17Z" fill="#F4F2F2"/>
<circle cx="386.115" cy="260.115" r="239.751" transform="rotate(-5.10009 386.115 260.115)" fill="#13AC83"/>
<path d="M332.635 246.2V249.567C332.635 261.056 331.61 270.267 329.559 277.199C327.509 284.066 324.532 289.612 320.629 293.838C316.793 297.998 312.096 301.827 306.54 305.327C302.505 307.902 298.834 310.642 295.526 313.547C292.285 316.386 289.705 319.522 287.787 322.956C285.869 326.389 284.91 330.285 284.91 334.642C284.91 339.198 286.001 343.16 288.184 346.527C290.367 349.961 293.277 352.602 296.916 354.45C300.62 356.365 304.688 357.323 309.12 357.323C313.419 357.323 317.487 356.365 321.324 354.45C325.16 352.602 328.302 349.829 330.75 346.131C333.197 342.434 334.52 337.878 334.719 332.464H375.201C374.936 345.669 371.761 356.596 365.676 365.246C359.656 373.895 351.685 380.333 341.763 384.559C331.907 388.85 320.96 390.996 308.921 390.996C295.824 390.996 284.182 388.817 273.996 384.459C263.875 380.168 255.937 373.928 250.183 365.741C244.428 357.554 241.55 347.65 241.55 336.029C241.55 328.304 242.807 321.47 245.321 315.528C247.9 309.519 251.472 304.237 256.037 299.681C260.667 295.06 266.058 290.933 272.21 287.301C277.435 284.132 281.702 280.897 285.009 277.596C288.383 274.228 290.863 270.333 292.451 265.909C294.104 261.419 294.964 255.972 295.03 249.567V246.2H332.635ZM312.989 182.814C319.604 182.814 325.26 185.125 329.956 189.747C334.652 194.369 336.935 199.981 336.802 206.584C336.935 213.055 334.652 218.601 329.956 223.223C325.26 227.845 319.604 230.155 312.989 230.155C306.705 230.155 301.182 227.845 296.419 223.223C291.723 218.601 289.309 213.055 289.176 206.584C289.242 202.16 290.367 198.166 292.55 194.6C294.799 191.035 297.709 188.196 301.281 186.083C304.919 183.904 308.822 182.814 312.989 182.814Z" fill="#F4F2F2"/>
<path d="M439 274.624V271.257C439.066 259.702 440.091 250.492 442.076 243.625C444.126 236.758 447.103 231.212 451.005 226.986C454.908 222.76 459.605 218.931 465.095 215.498C469.196 212.857 472.867 210.116 476.108 207.277C479.35 204.438 481.929 201.302 483.848 197.868C485.766 194.369 486.725 190.474 486.725 186.182C486.725 181.626 485.634 177.631 483.451 174.198C481.268 170.765 478.324 168.124 474.62 166.275C470.982 164.426 466.947 163.502 462.515 163.502C458.216 163.502 454.147 164.459 450.311 166.374C446.474 168.223 443.332 170.996 440.885 174.693C438.437 178.325 437.115 182.847 436.916 188.262H396.434C396.765 175.056 399.94 164.162 405.959 155.578C411.979 146.929 419.949 140.491 429.871 136.266C439.793 131.974 450.741 129.828 462.714 129.828C475.877 129.828 487.519 132.007 497.639 136.365C507.76 140.656 515.697 146.896 521.452 155.083C527.207 163.271 530.084 173.142 530.084 184.696C530.084 192.421 528.795 199.288 526.215 205.296C523.701 211.239 520.162 216.521 515.598 221.143C511.034 225.699 505.643 229.825 499.425 233.523C494.2 236.626 489.9 239.861 486.527 243.229C483.219 246.596 480.739 250.492 479.085 254.915C477.497 259.339 476.671 264.786 476.604 271.257V274.624H439ZM458.645 338.01C452.031 338.01 446.375 335.699 441.679 331.077C437.048 326.389 434.766 320.777 434.832 314.24C434.766 307.77 437.048 302.223 441.679 297.602C446.375 292.98 452.031 290.669 458.645 290.669C464.929 290.669 470.453 292.98 475.215 297.602C479.978 302.223 482.392 307.77 482.458 314.24C482.392 318.598 481.235 322.593 478.986 326.224C476.803 329.79 473.925 332.662 470.354 334.841C466.782 336.953 462.879 338.01 458.645 338.01Z" fill="#F4F2F2"/>
<circle cx="241.5" cy="761.5" r="222.594" transform="rotate(-5.10009 241.5 761.5)" fill="#13AC83"/>
<path d="M191.848 748.581V751.707C191.848 762.374 190.896 770.925 188.992 777.362C187.088 783.737 184.324 788.887 180.701 792.81C177.139 796.672 172.779 800.227 167.62 803.476C163.874 805.867 160.465 808.411 157.395 811.108C154.385 813.744 151.99 816.656 150.209 819.844C148.428 823.032 147.538 826.648 147.538 830.694C147.538 834.924 148.551 838.602 150.578 841.728C152.604 844.916 155.307 847.368 158.684 849.085C162.123 850.862 165.9 851.751 170.015 851.751C174.007 851.751 177.784 850.862 181.346 849.085C184.908 847.368 187.825 844.794 190.097 841.361C192.37 837.928 193.598 833.698 193.782 828.671H231.367C231.122 840.932 228.174 851.077 222.524 859.107C216.935 867.138 209.535 873.115 200.323 877.038C191.172 881.023 181.008 883.015 169.831 883.015C157.671 883.015 146.862 880.992 137.405 876.946C128.008 872.962 120.639 867.169 115.296 859.567C109.953 851.966 107.281 842.771 107.281 831.982C107.281 824.809 108.448 818.465 110.782 812.947C113.177 807.369 116.493 802.465 120.731 798.235C125.03 793.944 130.035 790.113 135.746 786.741C140.598 783.799 144.559 780.795 147.63 777.73C150.762 774.603 153.065 770.987 154.539 766.879C156.074 762.711 156.873 757.654 156.934 751.707V748.581H191.848ZM173.608 689.732C179.749 689.732 185 691.877 189.36 696.168C193.721 700.459 195.839 705.67 195.717 711.8C195.839 717.808 193.721 722.957 189.36 727.248C185 731.539 179.749 733.685 173.608 733.685C167.774 733.685 162.646 731.539 158.224 727.248C153.863 722.957 151.622 717.808 151.499 711.8C151.56 707.693 152.604 703.984 154.631 700.674C156.719 697.364 159.421 694.728 162.738 692.766C166.115 690.743 169.739 689.732 173.608 689.732Z" fill="#F4F2F2"/>
<path d="M290.601 774.971V771.845C290.662 761.117 291.614 752.566 293.456 746.19C295.36 739.815 298.124 734.665 301.747 730.742C305.37 726.819 309.731 723.263 314.828 720.076C318.636 717.624 322.044 715.08 325.053 712.444C328.063 709.808 330.458 706.896 332.239 703.708C334.02 700.459 334.91 696.842 334.91 692.858C334.91 688.628 333.897 684.919 331.87 681.732C329.844 678.544 327.111 676.092 323.672 674.376C320.294 672.659 316.548 671.801 312.433 671.801C308.441 671.801 304.664 672.69 301.102 674.467C297.54 676.184 294.623 678.759 292.351 682.191C290.078 685.563 288.85 689.762 288.666 694.789H251.081C251.388 682.529 254.336 672.414 259.924 664.445C265.513 656.414 272.913 650.437 282.125 646.514C291.337 642.529 301.501 640.537 312.617 640.537C324.839 640.537 335.647 642.56 345.044 646.606C354.44 650.591 361.809 656.384 367.152 663.985C372.495 671.586 375.167 680.751 375.167 691.479C375.167 698.651 373.969 705.026 371.574 710.605C369.24 716.122 365.955 721.026 361.717 725.317C357.48 729.547 352.475 733.378 346.702 736.811C341.85 739.692 337.858 742.696 334.726 745.822C331.655 748.949 329.352 752.566 327.817 756.673C326.343 760.78 325.575 765.837 325.514 771.845V774.971H290.601ZM308.84 833.821C302.699 833.821 297.448 831.675 293.088 827.384C288.789 823.032 286.67 817.821 286.731 811.752C286.67 805.745 288.789 800.595 293.088 796.304C297.448 792.013 302.699 789.867 308.84 789.867C314.675 789.867 319.803 792.013 324.224 796.304C328.646 800.595 330.888 805.745 330.949 811.752C330.888 815.798 329.813 819.507 327.725 822.878C325.698 826.189 323.027 828.855 319.71 830.878C316.394 832.84 312.771 833.821 308.84 833.821Z" fill="#F4F2F2"/>
</svg>
